<svg width="94" height="94" viewBox="0 0 94 94" fill="none" xmlns="http://www.w3.org/2000/svg">
<path d="M76.3556 28.1167L76.3944 28.0778L61.9278 13.6111L57.8056 17.7334L66.0111 25.9389C62.3556 27.3389 59.75 30.8389 59.75 35C59.75 40.3667 64.1056 44.7222 69.4722 44.7222C70.8722 44.7222 72.1556 44.4111 73.3611 43.9056V71.9445C73.3611 74.0834 71.6111 75.8334 69.4722 75.8334C67.3333 75.8334 65.5833 74.0834 65.5833 71.9445V54.4445C65.5833 50.1667 62.0833 46.6667 57.8056 46.6667H53.9167V19.4445C53.9167 15.1667 50.4167 11.6667 46.1389 11.6667H22.8055C18.5278 11.6667 15.0278 15.1667 15.0278 19.4445V81.6667H53.9167V52.5H59.75V71.9445C59.75 77.3111 64.1056 81.6667 69.4722 81.6667C74.8389 81.6667 79.1944 77.3111 79.1944 71.9445V35C79.1944 32.3167 78.1056 29.8667 76.3556 28.1167ZM46.1389 38.8889H22.8055V19.4445H46.1389V38.8889ZM69.4722 38.8889C67.3333 38.8889 65.5833 37.1389 65.5833 35C65.5833 32.8611 67.3333 31.1111 69.4722 31.1111C71.6111 31.1111 73.3611 32.8611 73.3611 35C73.3611 37.1389 71.6111 38.8889 69.4722 38.8889Z" fill="white"/>
</svg>
