<svg width="49" height="23" viewBox="0 0 49 23" fill="none" xmlns="http://www.w3.org/2000/svg">
<path d="M0.375 11.5L2.31375 9.56125L10 17.2338V0.5H12.75V17.2338L20.4225 9.5475L22.375 11.5L11.375 22.5L0.375 11.5Z" fill="#B91C1C"/>
<path d="M35.5596 6.47925V18.25H33.6179V8.78345L30.7417 9.7583V8.15503L35.3259 6.47925H35.5596ZM47.4995 16.7031V18.25H39.6362V16.9207L43.4551 12.7554C43.874 12.2827 44.2043 11.8745 44.446 11.5308C44.6877 11.187 44.8569 10.8782 44.9536 10.6042C45.0557 10.325 45.1067 10.0537 45.1067 9.79053C45.1067 9.41992 45.0369 9.09497 44.8972 8.81567C44.7629 8.53101 44.5642 8.30811 44.301 8.14697C44.0378 7.98047 43.7183 7.89722 43.3423 7.89722C42.9072 7.89722 42.542 7.99121 42.2466 8.1792C41.9512 8.36719 41.7283 8.62769 41.5779 8.96069C41.4275 9.28833 41.3523 9.66431 41.3523 10.0886H39.4106C39.4106 9.40649 39.5664 8.78345 39.8779 8.21948C40.1895 7.65015 40.6406 7.19897 41.2314 6.86597C41.8223 6.52759 42.5339 6.3584 43.3665 6.3584C44.1506 6.3584 44.8167 6.48999 45.3645 6.75317C45.9124 7.01636 46.3286 7.38965 46.6133 7.87305C46.9033 8.35645 47.0483 8.92847 47.0483 9.58911C47.0483 9.95435 46.9893 10.3169 46.8711 10.6768C46.7529 11.0366 46.5837 11.3965 46.3635 11.7563C46.1487 12.1108 45.8936 12.468 45.5981 12.8279C45.3027 13.1824 44.9778 13.5422 44.6233 13.9075L42.0854 16.7031H47.4995Z" fill="#B91C1C"/>
</svg>
